<svg width="24" height="24" viewBox="0 0 24 24" fill="none" xmlns="http://www.w3.org/2000/svg">
<g id="Miscellaneous Set / Image / camera">
<mask id="mask0_70_9225" style="mask-type:alpha" maskUnits="userSpaceOnUse" x="2" y="2" width="20" height="20">
<g id="Icon Mask">
<path id="Round" fill-rule="evenodd" clip-rule="evenodd" d="M13.4595 2.11488C13.8095 2.15488 13.9795 2.55488 13.8095 2.85488L9.7795 9.84488C9.5795 10.1749 9.0995 10.1749 8.9095 9.84488L5.8995 4.62488C5.7695 4.40488 5.8295 4.12488 6.0195 3.97488C8.1595 2.39488 10.8395 1.74488 13.4595 2.11488ZM15.9495 2.82488C18.3795 3.86488 20.3195 5.85488 21.2995 8.32488C21.4295 8.64488 21.1795 8.99488 20.8295 8.99488H12.7495C12.3595 8.99488 12.1195 8.57488 12.3095 8.25488L15.3195 3.04488C15.4495 2.82488 15.7195 2.72488 15.9495 2.82488ZM21.3695 9.99488H15.1695C14.7895 9.99488 14.5395 10.4149 14.7395 10.7449L18.9995 18.1349C19.1695 18.4349 19.5995 18.4849 19.8195 18.2149C21.5595 16.0349 22.2995 13.1849 21.8695 10.4249C21.8395 10.1749 21.6195 9.99488 21.3695 9.99488ZM2.1295 13.5749C1.6995 10.8049 2.4495 7.97488 4.1795 5.78488C4.3895 5.51488 4.8195 5.56488 4.9995 5.86488L9.2595 13.2449C9.4595 13.5749 9.2095 13.9949 8.8295 13.9949H2.6295C2.3795 13.9949 2.1595 13.8149 2.1295 13.5749ZM2.6995 15.6649C3.6795 18.1349 5.6195 20.1249 8.0495 21.1649C8.2795 21.2649 8.5495 21.1649 8.6795 20.9449L11.6895 15.7349C11.8795 15.4049 11.6395 14.9849 11.2595 14.9849H3.1695C2.8195 14.9949 2.5695 15.3449 2.6995 15.6649ZM17.9695 20.0249C15.8295 21.6049 13.1495 22.2549 10.5295 21.8849C10.1895 21.8349 10.0095 21.4349 10.1795 21.1349L14.2195 14.1449C14.4195 13.8149 14.8995 13.8149 15.0895 14.1449L18.0995 19.3649C18.2295 19.5849 18.1695 19.8749 17.9695 20.0249Z" fill="black"/>
</g>
</mask>
<g mask="url(#mask0_70_9225)">
<rect id="Color Fill" width="24" height="24" fill="black"/>
</g>
</g>
</svg>
